<svg xmlns="http://www.w3.org/2000/svg" xmlns:xlink="http://www.w3.org/1999/xlink" width="1080" zoomAndPan="magnify" viewBox="0 0 810 809.999993" height="1080" preserveAspectRatio="xMidYMid meet" version="1.0"><defs><g/><clipPath id="4746c0c9d7"><path d="M 610 446 L 632 446 L 632 475.871094 L 610 475.871094 Z M 610 446 " clip-rule="nonzero"/></clipPath><clipPath id="9a54e92c08"><path d="M 557.136719 334.121094 L 677 334.121094 L 677 461 L 557.136719 461 Z M 557.136719 334.121094 " clip-rule="nonzero"/></clipPath></defs><g clip-path="url(#4746c0c9d7)"><path fill="#2ac2f3" d="M 610.625 475.867188 L 610.625 459.65625 C 618.621094 456.929688 625.679688 452.179688 631.191406 446.011719 L 631.191406 475.867188 L 610.625 475.867188 " fill-opacity="1" fill-rule="nonzero"/></g><path fill="#2ac2f3" d="M 643.929688 424.875 L 642.242188 424.875 C 640.347656 432.863281 636.484375 440.085938 631.191406 446.007812 L 645.039062 446.007812 C 642.070312 443.222656 640.214844 439.257812 640.214844 434.863281 C 640.214844 431.042969 641.613281 427.554688 643.929688 424.875 " fill-opacity="1" fill-rule="nonzero"/><g clip-path="url(#9a54e92c08)"><path fill="#1b86ea" d="M 655.507812 423.492188 C 661.777344 423.492188 666.878906 428.59375 666.878906 434.863281 C 666.878906 441.132812 661.777344 446.234375 655.507812 446.234375 C 649.238281 446.234375 644.136719 441.132812 644.136719 434.863281 C 644.136719 428.59375 649.238281 423.492188 655.507812 423.492188 Z M 626.464844 336.710938 C 621.339844 338.980469 617.78125 342.773438 616.171875 347.671875 C 614.339844 353.242188 614.90625 359.425781 617.761719 365.078125 C 619.195312 367.914062 621.023438 370.519531 622.925781 373.164062 C 624.777344 375.738281 626.769531 378.375 628.84375 380.988281 C 628.921875 381.085938 629.011719 381.164062 629.113281 381.222656 C 634.394531 389.121094 637.183594 398.335938 637.183594 407.875 C 637.183594 413.5 636.222656 419.003906 634.320312 424.242188 L 631.824219 424.242188 L 631.824219 394.382812 L 609.992188 394.382812 L 609.992188 424.242188 L 578.5625 424.242188 L 578.5625 446.644531 L 609.992188 446.644531 L 609.992188 451.144531 C 603.476562 454.289062 596.476562 455.882812 589.175781 455.882812 C 577.832031 455.882812 566.824219 451.851562 558.179688 444.535156 L 557.289062 445.421875 C 557.722656 445.941406 558.1875 446.464844 558.667969 446.984375 L 558.703125 447.019531 C 567.816406 455.398438 579.660156 460.015625 592.046875 460.015625 C 598.566406 460.015625 604.898438 458.761719 610.867188 456.292969 C 617.53125 453.535156 623.628906 449.246094 628.503906 443.886719 C 633.402344 438.5 637.105469 431.988281 639.203125 425.058594 C 640.605469 420.4375 641.316406 415.625 641.316406 410.742188 C 641.316406 398.875 637.039062 387.417969 629.273438 378.46875 C 627.246094 375.871094 625.328125 373.296875 623.582031 370.824219 C 621.535156 367.933594 619.933594 365.449219 618.75 362.730469 C 616.089844 356.617188 616.488281 349.414062 619.765625 344.371094 C 622.140625 340.71875 626.757812 337.933594 632.117188 336.914062 C 637.023438 335.980469 642.84375 336.417969 648.089844 338.109375 C 659.910156 341.925781 666.574219 354.023438 669.492188 360.898438 C 673.933594 371.351562 675.628906 383.402344 674.402344 395.75 C 673.589844 403.894531 670.878906 415.222656 662.617188 423.167969 C 660.542969 421.90625 658.109375 421.175781 655.507812 421.175781 C 647.960938 421.175781 641.820312 427.316406 641.820312 434.863281 C 641.820312 442.410156 647.960938 448.550781 655.507812 448.550781 C 663.054688 448.550781 669.195312 442.410156 669.195312 434.863281 C 669.195312 430.605469 667.242188 426.800781 664.1875 424.289062 C 665.015625 423.476562 665.792969 422.644531 666.496094 421.804688 C 672.636719 414.46875 676.128906 403.953125 676.59375 391.402344 C 677.089844 378 674.378906 365.398438 668.746094 354.964844 C 665.824219 349.550781 662.28125 345.070312 658.214844 341.640625 C 653.960938 338.058594 648.804688 335.824219 642.882812 335 C 636.539062 334.117188 631.011719 334.691406 626.464844 336.710938 " fill-opacity="1" fill-rule="nonzero"/></g><path fill="#2ac2f3" d="M 655.507812 426.144531 C 650.691406 426.144531 646.789062 430.046875 646.789062 434.863281 C 646.789062 439.675781 650.691406 443.582031 655.507812 443.582031 C 660.324219 443.582031 664.226562 439.675781 664.226562 434.863281 C 664.226562 430.046875 660.324219 426.144531 655.507812 426.144531 " fill-opacity="1" fill-rule="nonzero"/><path stroke-linecap="butt" transform="matrix(1.62, 0, 0, 1.62, 54.817405, 398.956289)" fill="none" stroke-linejoin="miter" d="M 34.704726 38.445673 C 32.640683 38.445673 30.644155 38.165967 28.712732 37.608964 C 26.788542 37.049551 25.242921 36.321349 24.07828 35.421947 L 26.127855 30.879123 C 27.244271 31.698953 28.572878 32.357228 30.116088 32.853949 C 31.656887 33.353081 33.200097 33.601441 34.743306 33.601441 C 36.460127 33.601441 37.728453 33.345847 38.548283 32.83707 C 39.368113 32.325882 39.778029 31.645905 39.778029 30.79714 C 39.778029 30.177445 39.534491 29.663845 39.049826 29.258752 C 38.562751 28.844015 37.940644 28.513671 37.183507 28.265311 C 36.428781 28.016951 35.406404 27.742066 34.113966 27.445481 C 32.122261 26.972873 30.492246 26.497854 29.22392 26.025246 C 27.955594 25.552638 26.865702 24.793089 25.954244 23.749011 C 25.05002 22.704933 24.596702 21.313633 24.596702 19.577522 C 24.596702 18.060836 25.006617 16.684003 25.826447 15.451847 C 26.646277 14.21969 27.880845 13.245539 29.532562 12.529393 C 31.191513 11.806014 33.212153 11.446735 35.599306 11.446735 C 37.267901 11.446735 38.897917 11.64687 40.489352 12.04714 C 42.078376 12.440176 43.472087 13.011646 44.668075 13.759139 L 42.801755 18.338132 C 40.39049 16.973355 37.976813 16.290967 35.560725 16.290967 C 33.87284 16.290967 32.623804 16.56344 31.808796 17.110797 C 31.003434 17.655743 30.598341 18.379123 30.598341 19.276114 C 30.598341 20.170693 31.066127 20.833791 32.001698 21.272641 C 32.934857 21.709081 34.359915 22.135874 36.272049 22.555435 C 38.263754 23.028043 39.893769 23.503062 41.162095 23.97567 C 42.43042 24.450689 43.517901 25.19577 44.422126 26.215736 C 45.333584 27.235701 45.789313 28.614945 45.789313 30.351056 C 45.789313 31.843629 45.369753 33.205994 44.530633 34.440562 C 43.698746 35.672718 42.449711 36.649281 40.778704 37.37266 C 39.117342 38.088806 37.091879 38.445673 34.704726 38.445673 Z M 55.333101 16.809389 L 46.973244 16.809389 L 46.973244 11.892819 L 69.728356 11.892819 L 69.728356 16.809389 L 61.368499 16.809389 L 61.368499 37.999589 L 55.333101 37.999589 Z M 89.609239 37.999589 L 84.574517 30.724802 L 79.018961 30.724802 L 79.018961 37.999589 L 72.971508 37.999589 L 72.971508 11.892819 L 84.273108 11.892819 C 86.585512 11.892819 88.591685 12.27621 90.291627 13.047815 C 91.998803 13.81942 93.310531 14.914135 94.226812 16.336781 C 95.150327 17.749783 95.610878 19.425612 95.610878 21.361858 C 95.610878 23.305338 95.143093 24.981168 94.207522 26.389347 C 93.279185 27.792703 91.9554 28.863305 90.238579 29.603563 L 96.093131 37.999589 Z M 89.491087 21.361858 C 89.491087 19.89822 89.018479 18.776982 88.070851 17.993321 C 87.130458 17.204837 85.751214 16.809389 83.935531 16.809389 L 79.018961 16.809389 L 79.018961 25.916739 L 83.935531 25.916739 C 85.751214 25.916739 87.130458 25.51888 88.070851 24.723162 C 89.018479 23.927445 89.491087 22.808618 89.491087 21.361858 Z M 113.034682 38.445673 C 110.319597 38.445673 107.874574 37.864559 105.69479 36.697506 C 103.519829 35.525631 101.817475 33.914906 100.585319 31.862919 C 99.360396 29.810932 98.745523 27.503351 98.745523 24.940176 C 98.745523 22.386646 99.360396 20.081476 100.585319 18.02949 C 101.817475 15.977503 103.519829 14.369189 105.69479 13.202136 C 107.874574 12.030261 110.319597 11.446735 113.034682 11.446735 C 115.742533 11.446735 118.1755 12.030261 120.338405 13.202136 C 122.503721 14.369189 124.208486 15.977503 125.445465 18.02949 C 126.689678 20.081476 127.314195 22.386646 127.314195 24.940176 C 127.314195 27.503351 126.689678 29.810932 125.445465 31.862919 C 124.208486 33.914906 122.503721 35.525631 120.338405 36.697506 C 118.1755 37.864559 115.742533 38.445673 113.034682 38.445673 Z M 113.034682 33.300033 C 114.570658 33.300033 115.959547 32.945577 117.20376 32.236665 C 118.450384 31.525342 119.426946 30.539134 120.13827 29.275631 C 120.847182 28.007306 121.201638 26.562958 121.201638 24.940176 C 121.201638 23.32704 120.847182 21.885103 120.13827 20.616777 C 119.426946 19.34604 118.450384 18.359833 117.20376 17.655743 C 115.959547 16.946831 114.570658 16.589964 113.034682 16.589964 C 111.491472 16.589964 110.097761 16.946831 108.853548 17.655743 C 107.609335 18.359833 106.632772 19.34604 105.921449 20.616777 C 105.212537 21.885103 104.85567 23.32704 104.85567 24.940176 C 104.85567 26.562958 105.212537 28.007306 105.921449 29.275631 C 106.632772 30.539134 107.609335 31.525342 108.853548 32.236665 C 110.097761 32.945577 111.491472 33.300033 113.034682 33.300033 Z M 141.371873 27.746889 L 137.865893 31.397545 L 137.865893 37.999589 L 131.864253 37.999589 L 131.864253 11.892819 L 137.865893 11.892819 L 137.865893 24.084177 L 149.430321 11.892819 L 156.140873 11.892819 L 145.33117 23.529586 L 156.779858 37.999589 L 149.73173 37.999589 Z M 179.679646 33.155357 L 179.679646 37.999589 L 159.463597 37.999589 L 159.463597 11.892819 L 179.197393 11.892819 L 179.197393 16.737051 L 165.465236 16.737051 L 165.465236 22.410759 L 177.593901 22.410759 L 177.593901 27.107904 L 165.465236 27.107904 L 165.465236 33.155357 Z M 218.995328 11.892819 L 218.995328 37.999589 L 212.947874 37.999589 L 212.947874 27.29116 L 201.091682 27.29116 L 201.091682 37.999589 L 195.044229 37.999589 L 195.044229 11.892819 L 201.091682 11.892819 L 201.091682 22.181689 L 212.947874 22.181689 L 212.947874 11.892819 Z M 245.396272 33.155357 L 245.396272 37.999589 L 225.180223 37.999589 L 225.180223 11.892819 L 244.914019 11.892819 L 244.914019 16.737051 L 231.181863 16.737051 L 231.181863 22.410759 L 243.310528 22.410759 L 243.310528 27.107904 L 231.181863 27.107904 L 231.181863 33.155357 Z M 266.844478 37.999589 L 261.807344 30.724802 L 256.2542 30.724802 L 256.2542 37.999589 L 250.206747 37.999589 L 250.206747 11.892819 L 261.508347 11.892819 C 263.820751 11.892819 265.826924 12.27621 267.526866 13.047815 C 269.234042 13.81942 270.543359 14.914135 271.462051 16.336781 C 272.383154 17.749783 272.846117 19.425612 272.846117 21.361858 C 272.846117 23.305338 272.378332 24.981168 271.442761 26.389347 C 270.514424 27.792703 269.190639 28.863305 267.471407 29.603563 L 273.32837 37.999589 Z M 266.726326 21.361858 C 266.726326 19.89822 266.251306 18.776982 265.30609 17.993321 C 264.363286 17.204837 262.986453 16.809389 261.17077 16.809389 L 256.2542 16.809389 L 256.2542 25.916739 L 261.17077 25.916739 C 262.986453 25.916739 264.363286 25.51888 265.30609 24.723162 C 266.251306 23.927445 266.726326 22.808618 266.726326 21.361858 Z M 290.267509 38.445673 C 287.554836 38.445673 285.107402 37.864559 282.927618 36.697506 C 280.755068 35.525631 279.052714 33.914906 277.820558 31.862919 C 276.593224 29.810932 275.980762 27.503351 275.980762 24.940176 C 275.980762 22.386646 276.593224 20.081476 277.820558 18.02949 C 279.052714 15.977503 280.755068 14.369189 282.927618 13.202136 C 285.107402 12.030261 287.554836 11.446735 290.267509 11.446735 C 292.97536 11.446735 295.410739 12.030261 297.571232 13.202136 C 299.73896 14.369189 301.441313 15.977503 302.680704 18.02949 C 303.924917 20.081476 304.547023 22.386646 304.547023 24.940176 C 304.547023 27.503351 303.924917 29.810932 302.680704 31.862919 C 301.441313 33.914906 299.73896 35.525631 297.571232 36.697506 C 295.410739 37.864559 292.97536 38.445673 290.267509 38.445673 Z M 290.267509 33.300033 C 291.803486 33.300033 293.194786 32.945577 294.438999 32.236665 C 295.683211 31.525342 296.662185 30.539134 297.371097 29.275631 C 298.082421 28.007306 298.436877 26.562958 298.436877 24.940176 C 298.436877 23.32704 298.082421 21.885103 297.371097 20.616777 C 296.662185 19.34604 295.683211 18.359833 294.438999 17.655743 C 293.194786 16.946831 291.803486 16.589964 290.267509 16.589964 C 288.726711 16.589964 287.333 16.946831 286.088787 17.655743 C 284.844574 18.359833 283.8656 19.34604 283.156688 20.616777 C 282.445365 21.885103 282.090909 23.32704 282.090909 24.940176 C 282.090909 26.562958 282.445365 28.007306 283.156688 29.275631 C 283.8656 30.539134 284.844574 31.525342 286.088787 32.236665 C 287.333 32.945577 288.726711 33.300033 290.267509 33.300033 Z M 290.267509 33.300033 " stroke="#d5f1f0" stroke-width="2.798025" stroke-opacity="1" stroke-miterlimit="4"/><g fill="#020bb5" fill-opacity="1"><g transform="translate(92.128031, 460.51629)"><g><path d="M 18.90625 0.71875 C 15.5625 0.71875 12.328125 0.265625 9.203125 -0.640625 C 6.085938 -1.546875 3.582031 -2.722656 1.6875 -4.171875 L 5.015625 -11.546875 C 6.828125 -10.210938 8.976562 -9.140625 11.46875 -8.328125 C 13.96875 -7.523438 16.46875 -7.125 18.96875 -7.125 C 21.75 -7.125 23.800781 -7.535156 25.125 -8.359375 C 26.457031 -9.191406 27.125 -10.289062 27.125 -11.65625 C 27.125 -12.664062 26.726562 -13.503906 25.9375 -14.171875 C 25.15625 -14.835938 24.148438 -15.367188 22.921875 -15.765625 C 21.703125 -16.171875 20.046875 -16.613281 17.953125 -17.09375 C 14.722656 -17.863281 12.082031 -18.628906 10.03125 -19.390625 C 7.976562 -20.160156 6.210938 -21.390625 4.734375 -23.078125 C 3.265625 -24.773438 2.53125 -27.03125 2.53125 -29.84375 C 2.53125 -32.300781 3.195312 -34.523438 4.53125 -36.515625 C 5.863281 -38.515625 7.867188 -40.097656 10.546875 -41.265625 C 13.222656 -42.429688 16.492188 -43.015625 20.359375 -43.015625 C 23.054688 -43.015625 25.691406 -42.691406 28.265625 -42.046875 C 30.847656 -41.410156 33.109375 -40.488281 35.046875 -39.28125 L 32.03125 -31.84375 C 28.113281 -34.0625 24.203125 -35.171875 20.296875 -35.171875 C 17.554688 -35.171875 15.53125 -34.722656 14.21875 -33.828125 C 12.914062 -32.941406 12.265625 -31.773438 12.265625 -30.328125 C 12.265625 -28.878906 13.019531 -27.800781 14.53125 -27.09375 C 16.039062 -26.394531 18.347656 -25.703125 21.453125 -25.015625 C 24.671875 -24.242188 27.304688 -23.476562 29.359375 -22.71875 C 31.421875 -21.957031 33.1875 -20.75 34.65625 -19.09375 C 36.125 -17.4375 36.859375 -15.203125 36.859375 -12.390625 C 36.859375 -9.972656 36.179688 -7.765625 34.828125 -5.765625 C 33.484375 -3.773438 31.460938 -2.195312 28.765625 -1.03125 C 26.066406 0.132812 22.78125 0.71875 18.90625 0.71875 Z M 18.90625 0.71875 "/></g></g></g><g fill="#020bb5" fill-opacity="1"><g transform="translate(130.676473, 460.51629)"><g><path d="M 13.78125 -34.3125 L 0.234375 -34.3125 L 0.234375 -42.296875 L 37.09375 -42.296875 L 37.09375 -34.3125 L 23.5625 -34.3125 L 23.5625 0 L 13.78125 0 Z M 13.78125 -34.3125 "/></g></g></g><g fill="#020bb5" fill-opacity="1"><g transform="translate(168.016514, 460.51629)"><g><path d="M 31.96875 0 L 23.8125 -11.78125 L 14.796875 -11.78125 L 14.796875 0 L 5.015625 0 L 5.015625 -42.296875 L 23.328125 -42.296875 C 27.066406 -42.296875 30.316406 -41.671875 33.078125 -40.421875 C 35.835938 -39.171875 37.960938 -37.394531 39.453125 -35.09375 C 40.941406 -32.800781 41.6875 -30.085938 41.6875 -26.953125 C 41.6875 -23.804688 40.929688 -21.09375 39.421875 -18.8125 C 37.910156 -16.539062 35.765625 -14.800781 32.984375 -13.59375 L 42.484375 0 Z M 31.78125 -26.953125 C 31.78125 -29.328125 31.015625 -31.144531 29.484375 -32.40625 C 27.953125 -33.675781 25.71875 -34.3125 22.78125 -34.3125 L 14.796875 -34.3125 L 14.796875 -19.578125 L 22.78125 -19.578125 C 25.71875 -19.578125 27.953125 -20.21875 29.484375 -21.5 C 31.015625 -22.789062 31.78125 -24.609375 31.78125 -26.953125 Z M 31.78125 -26.953125 "/></g></g></g><g fill="#020bb5" fill-opacity="1"><g transform="translate(212.425789, 460.51629)"><g><path d="M 25.5 0.71875 C 21.101562 0.71875 17.144531 -0.222656 13.625 -2.109375 C 10.101562 -4.003906 7.34375 -6.613281 5.34375 -9.9375 C 3.351562 -13.257812 2.359375 -16.992188 2.359375 -21.140625 C 2.359375 -25.296875 3.351562 -29.035156 5.34375 -32.359375 C 7.34375 -35.679688 10.101562 -38.285156 13.625 -40.171875 C 17.144531 -42.066406 21.101562 -43.015625 25.5 -43.015625 C 29.882812 -43.015625 33.828125 -42.066406 37.328125 -40.171875 C 40.835938 -38.285156 43.597656 -35.679688 45.609375 -32.359375 C 47.628906 -29.035156 48.640625 -25.296875 48.640625 -21.140625 C 48.640625 -16.992188 47.628906 -13.257812 45.609375 -9.9375 C 43.597656 -6.613281 40.835938 -4.003906 37.328125 -2.109375 C 33.828125 -0.222656 29.882812 0.71875 25.5 0.71875 Z M 25.5 -7.609375 C 28 -7.609375 30.253906 -8.179688 32.265625 -9.328125 C 34.273438 -10.484375 35.851562 -12.085938 37 -14.140625 C 38.15625 -16.191406 38.734375 -18.523438 38.734375 -21.140625 C 38.734375 -23.765625 38.15625 -26.101562 37 -28.15625 C 35.851562 -30.207031 34.273438 -31.804688 32.265625 -32.953125 C 30.253906 -34.109375 28 -34.6875 25.5 -34.6875 C 23 -34.6875 20.738281 -34.109375 18.71875 -32.953125 C 16.707031 -31.804688 15.128906 -30.207031 13.984375 -28.15625 C 12.835938 -26.101562 12.265625 -23.765625 12.265625 -21.140625 C 12.265625 -18.523438 12.835938 -16.191406 13.984375 -14.140625 C 15.128906 -12.085938 16.707031 -10.484375 18.71875 -9.328125 C 20.738281 -8.179688 23 -7.609375 25.5 -7.609375 Z M 25.5 -7.609375 "/></g></g></g><g fill="#020bb5" fill-opacity="1"><g transform="translate(263.420912, 460.51629)"><g><path d="M 20.421875 -16.609375 L 14.75 -10.6875 L 14.75 0 L 5.015625 0 L 5.015625 -42.296875 L 14.75 -42.296875 L 14.75 -22.53125 L 33.46875 -42.296875 L 44.34375 -42.296875 L 26.828125 -23.4375 L 45.375 0 L 33.953125 0 Z M 20.421875 -16.609375 "/></g></g></g><g fill="#020bb5" fill-opacity="1"><g transform="translate(308.13228, 460.51629)"><g><path d="M 37.765625 -7.859375 L 37.765625 0 L 5.015625 0 L 5.015625 -42.296875 L 36.984375 -42.296875 L 36.984375 -34.4375 L 14.75 -34.4375 L 14.75 -25.25 L 34.375 -25.25 L 34.375 -17.640625 L 14.75 -17.640625 L 14.75 -7.859375 Z M 37.765625 -7.859375 "/></g></g></g><g fill="#020bb5" fill-opacity="1"><g transform="translate(348.674624, 460.51629)"><g/></g></g><g fill="#020bb5" fill-opacity="1"><g transform="translate(365.773713, 460.51629)"><g><path d="M 43.8125 -42.296875 L 43.8125 0 L 34.015625 0 L 34.015625 -17.34375 L 14.796875 -17.34375 L 14.796875 0 L 5.015625 0 L 5.015625 -42.296875 L 14.796875 -42.296875 L 14.796875 -25.625 L 34.015625 -25.625 L 34.015625 -42.296875 Z M 43.8125 -42.296875 "/></g></g></g><g fill="#020bb5" fill-opacity="1"><g transform="translate(414.59369, 460.51629)"><g><path d="M 37.765625 -7.859375 L 37.765625 0 L 5.015625 0 L 5.015625 -42.296875 L 36.984375 -42.296875 L 36.984375 -34.4375 L 14.75 -34.4375 L 14.75 -25.25 L 34.375 -25.25 L 34.375 -17.640625 L 14.75 -17.640625 L 14.75 -7.859375 Z M 37.765625 -7.859375 "/></g></g></g><g fill="#020bb5" fill-opacity="1"><g transform="translate(455.136035, 460.51629)"><g><path d="M 31.96875 0 L 23.8125 -11.78125 L 14.796875 -11.78125 L 14.796875 0 L 5.015625 0 L 5.015625 -42.296875 L 23.328125 -42.296875 C 27.066406 -42.296875 30.316406 -41.671875 33.078125 -40.421875 C 35.835938 -39.171875 37.960938 -37.394531 39.453125 -35.09375 C 40.941406 -32.800781 41.6875 -30.085938 41.6875 -26.953125 C 41.6875 -23.804688 40.929688 -21.09375 39.421875 -18.8125 C 37.910156 -16.539062 35.765625 -14.800781 32.984375 -13.59375 L 42.484375 0 Z M 31.78125 -26.953125 C 31.78125 -29.328125 31.015625 -31.144531 29.484375 -32.40625 C 27.953125 -33.675781 25.71875 -34.3125 22.78125 -34.3125 L 14.796875 -34.3125 L 14.796875 -19.578125 L 22.78125 -19.578125 C 25.71875 -19.578125 27.953125 -20.21875 29.484375 -21.5 C 31.015625 -22.789062 31.78125 -24.609375 31.78125 -26.953125 Z M 31.78125 -26.953125 "/></g></g></g><g fill="#020bb5" fill-opacity="1"><g transform="translate(499.54531, 460.51629)"><g><path d="M 25.5 0.71875 C 21.101562 0.71875 17.144531 -0.222656 13.625 -2.109375 C 10.101562 -4.003906 7.34375 -6.613281 5.34375 -9.9375 C 3.351562 -13.257812 2.359375 -16.992188 2.359375 -21.140625 C 2.359375 -25.296875 3.351562 -29.035156 5.34375 -32.359375 C 7.34375 -35.679688 10.101562 -38.285156 13.625 -40.171875 C 17.144531 -42.066406 21.101562 -43.015625 25.5 -43.015625 C 29.882812 -43.015625 33.828125 -42.066406 37.328125 -40.171875 C 40.835938 -38.285156 43.597656 -35.679688 45.609375 -32.359375 C 47.628906 -29.035156 48.640625 -25.296875 48.640625 -21.140625 C 48.640625 -16.992188 47.628906 -13.257812 45.609375 -9.9375 C 43.597656 -6.613281 40.835938 -4.003906 37.328125 -2.109375 C 33.828125 -0.222656 29.882812 0.71875 25.5 0.71875 Z M 25.5 -7.609375 C 28 -7.609375 30.253906 -8.179688 32.265625 -9.328125 C 34.273438 -10.484375 35.851562 -12.085938 37 -14.140625 C 38.15625 -16.191406 38.734375 -18.523438 38.734375 -21.140625 C 38.734375 -23.765625 38.15625 -26.101562 37 -28.15625 C 35.851562 -30.207031 34.273438 -31.804688 32.265625 -32.953125 C 30.253906 -34.109375 28 -34.6875 25.5 -34.6875 C 23 -34.6875 20.738281 -34.109375 18.71875 -32.953125 C 16.707031 -31.804688 15.128906 -30.207031 13.984375 -28.15625 C 12.835938 -26.101562 12.265625 -23.765625 12.265625 -21.140625 C 12.265625 -18.523438 12.835938 -16.191406 13.984375 -14.140625 C 15.128906 -12.085938 16.707031 -10.484375 18.71875 -9.328125 C 20.738281 -8.179688 23 -7.609375 25.5 -7.609375 Z M 25.5 -7.609375 "/></g></g></g></svg>