<svg xmlns="http://www.w3.org/2000/svg" xmlns:xlink="http://www.w3.org/1999/xlink" width="1080" zoomAndPan="magnify" viewBox="0 0 810 809.999993" height="1080" preserveAspectRatio="xMidYMid meet" version="1.0"><defs><g/><clipPath id="2d588579a0"><path d="M 387 473 L 442 473 L 442 551.625 L 387 551.625 Z M 387 473 " clip-rule="nonzero"/></clipPath><clipPath id="a7bad40504"><path d="M 248.570312 183 L 561 183 L 561 511 L 248.570312 511 Z M 248.570312 183 " clip-rule="nonzero"/></clipPath></defs><g clip-path="url(#2d588579a0)"><path fill="#2ac2f3" d="M 387.898438 551.617188 L 387.898438 509.34375 C 408.75 502.230469 427.15625 489.84375 441.523438 473.761719 L 441.523438 551.617188 L 387.898438 551.617188 " fill-opacity="1" fill-rule="nonzero"/></g><path fill="#2ac2f3" d="M 474.738281 418.648438 L 470.339844 418.648438 C 465.402344 439.476562 455.328125 458.316406 441.523438 473.757812 L 477.640625 473.757812 C 469.894531 466.488281 465.054688 456.15625 465.054688 444.691406 C 465.054688 434.738281 468.703125 425.632812 474.738281 418.648438 " fill-opacity="1" fill-rule="nonzero"/><g clip-path="url(#a7bad40504)"><path fill="#1b86ea" d="M 504.933594 415.039062 C 521.285156 415.039062 534.585938 428.339844 534.585938 444.691406 C 534.585938 461.042969 521.285156 474.34375 504.933594 474.34375 C 488.585938 474.34375 475.285156 461.042969 475.285156 444.691406 C 475.285156 428.339844 488.585938 415.039062 504.933594 415.039062 Z M 429.203125 188.753906 C 415.84375 194.679688 406.5625 204.566406 402.367188 217.339844 C 397.589844 231.867188 399.066406 247.980469 406.511719 262.722656 C 410.25 270.117188 415.007812 276.914062 419.96875 283.808594 C 424.808594 290.527344 430 297.398438 435.40625 304.214844 C 435.605469 304.46875 435.84375 304.671875 436.105469 304.824219 C 449.878906 325.421875 457.15625 349.441406 457.15625 374.324219 C 457.15625 388.988281 454.644531 403.339844 449.6875 416.996094 L 443.171875 416.996094 L 443.171875 339.140625 L 386.253906 339.140625 L 386.253906 416.996094 L 304.296875 416.996094 L 304.296875 475.410156 L 386.253906 475.410156 L 386.253906 487.152344 C 369.257812 495.351562 351.003906 499.503906 331.972656 499.503906 C 302.390625 499.503906 273.6875 488.996094 251.144531 469.910156 L 248.820312 472.226562 C 249.957031 473.582031 251.167969 474.945312 252.414062 476.300781 L 252.507812 476.394531 C 276.273438 498.246094 307.152344 510.28125 339.453125 510.28125 C 356.453125 510.28125 372.964844 507.015625 388.527344 500.570312 C 405.90625 493.386719 421.8125 482.199219 434.523438 468.222656 C 447.296875 454.175781 456.945312 437.199219 462.421875 419.125 C 466.078125 407.082031 467.933594 394.527344 467.933594 381.796875 C 467.933594 350.855469 456.777344 320.976562 436.519531 297.636719 C 431.234375 290.867188 426.242188 284.160156 421.683594 277.703125 C 416.351562 270.171875 412.171875 263.695312 409.082031 256.601562 C 402.144531 240.667969 403.183594 221.882812 411.734375 208.734375 C 417.925781 199.210938 429.96875 191.941406 443.941406 189.285156 C 456.730469 186.851562 471.910156 187.992188 485.59375 192.40625 C 516.414062 202.351562 533.792969 233.90625 541.402344 251.824219 C 552.980469 279.082031 557.40625 310.503906 554.199219 342.699219 C 552.082031 363.945312 545.015625 393.484375 523.46875 414.203125 C 518.0625 410.902344 511.71875 409 504.933594 409 C 485.253906 409 469.242188 425.011719 469.242188 444.691406 C 469.242188 464.371094 485.253906 480.382812 504.933594 480.382812 C 524.617188 480.382812 540.628906 464.371094 540.628906 444.691406 C 540.628906 433.597656 535.535156 423.667969 527.570312 417.117188 C 529.730469 415.003906 531.753906 412.832031 533.589844 410.644531 C 549.597656 391.511719 558.699219 364.097656 559.917969 331.367188 C 561.214844 296.421875 554.136719 263.566406 539.453125 236.359375 C 531.832031 222.238281 522.59375 210.554688 511.988281 201.617188 C 500.902344 192.273438 487.449219 186.445312 472.015625 184.296875 C 455.46875 181.992188 441.0625 183.492188 429.203125 188.753906 " fill-opacity="1" fill-rule="nonzero"/></g><path fill="#2ac2f3" d="M 504.933594 421.953125 C 492.378906 421.953125 482.199219 432.136719 482.199219 444.691406 C 482.199219 457.246094 492.378906 467.429688 504.933594 467.429688 C 517.492188 467.429688 527.671875 457.246094 527.671875 444.691406 C 527.671875 432.136719 517.492188 421.953125 504.933594 421.953125 " fill-opacity="1" fill-rule="nonzero"/><path stroke-linecap="butt" transform="matrix(1.62, 0, 0, 1.62, 138.460998, 566.640999)" fill="none" stroke-linejoin="miter" d="M 34.705305 38.447395 C 32.641262 38.447395 30.644734 38.167688 28.713311 37.608275 C 26.789121 37.048861 25.2435 36.320659 24.078859 35.423668 L 26.128434 30.878433 C 27.24485 31.698263 28.573457 32.356539 30.116667 32.855671 C 31.657466 33.352391 33.200676 33.600752 34.741474 33.600752 C 36.460706 33.600752 37.729032 33.347569 38.548862 32.836381 C 39.368692 32.327604 39.778607 31.647627 39.778607 30.79645 C 39.778607 30.176755 39.53507 29.665567 39.050405 29.258063 C 38.56333 28.845737 37.941223 28.512982 37.181675 28.264622 C 36.42936 28.016261 35.406983 27.743788 34.114545 27.444791 C 32.12284 26.972183 30.492825 26.499575 29.224499 26.024556 C 27.953762 25.551948 26.86387 24.792399 25.954823 23.748322 C 25.050599 22.704244 24.597281 21.312943 24.597281 19.576832 C 24.597281 18.060146 25.007196 16.685725 25.827026 15.453569 C 26.646856 14.219001 27.881424 13.24485 29.533141 12.528704 C 31.18968 11.807735 33.212732 11.446046 35.597473 11.446046 C 37.26848 11.446046 38.898496 11.646181 40.487519 12.046451 C 42.078955 12.441898 43.472666 13.010957 44.668654 13.758449 L 42.802334 18.339853 C 40.391069 16.972666 37.977392 16.290278 35.561304 16.290278 C 33.873419 16.290278 32.624383 16.562751 31.809375 17.110108 C 31.001601 17.655054 30.59892 18.378434 30.59892 19.277836 C 30.59892 20.170004 31.066706 20.835513 32.002277 21.271952 C 32.935436 21.708391 34.360494 22.137596 36.272628 22.554745 C 38.264333 23.029764 39.894348 23.502372 41.162674 23.97498 C 42.430999 24.45 43.51848 25.197492 44.422705 26.217457 C 45.331752 27.235011 45.787481 28.614255 45.787481 30.350366 C 45.787481 31.842939 45.370332 33.207716 44.531212 34.439872 C 43.699325 35.672029 42.450289 36.648591 40.779283 37.371971 C 39.115509 38.088117 37.092458 38.447395 34.705305 38.447395 Z M 55.331269 16.8087 L 46.971412 16.8087 L 46.971412 11.89213 L 69.728935 11.89213 L 69.728935 16.8087 L 61.369078 16.8087 L 61.369078 37.9989 L 55.331269 37.9989 Z M 89.609818 37.9989 L 84.572684 30.724112 L 79.01954 30.724112 L 79.01954 37.9989 L 72.972087 37.9989 L 72.972087 11.89213 L 84.273687 11.89213 C 86.586091 11.89213 88.592264 12.277932 90.292206 13.049537 C 91.999382 13.818731 93.31111 14.915856 94.227391 16.336092 C 95.148494 17.751505 95.611457 19.424923 95.611457 21.36358 C 95.611457 23.304649 95.143672 24.980478 94.208101 26.388657 C 93.279764 27.792014 91.955979 28.862615 90.239158 29.602874 L 96.09371 37.9989 Z M 89.491666 21.36358 C 89.491666 19.899942 89.016646 18.776292 88.07143 17.992631 C 87.128626 17.204147 85.751793 16.8087 83.93611 16.8087 L 79.01954 16.8087 L 79.01954 25.916049 L 83.93611 25.916049 C 85.751793 25.916049 87.128626 25.51819 88.07143 24.722473 C 89.016646 23.926755 89.491666 22.807928 89.491666 21.36358 Z M 113.035261 38.447395 C 110.320176 38.447395 107.872742 37.863869 105.695369 36.696817 C 103.520408 35.524942 101.818054 33.914216 100.585898 31.862229 C 99.358564 29.810243 98.746102 27.502662 98.746102 24.941898 C 98.746102 22.385957 99.358564 20.080787 100.585898 18.0288 C 101.818054 15.976813 103.520408 14.368499 105.695369 13.203858 C 107.872742 12.031983 110.320176 11.446046 113.035261 11.446046 C 115.740701 11.446046 118.176079 12.031983 120.336572 13.203858 C 122.5043 14.368499 124.206653 15.976813 125.446044 18.0288 C 126.690257 20.080787 127.312363 22.385957 127.312363 24.941898 C 127.312363 27.502662 126.690257 29.810243 125.446044 31.862229 C 124.206653 33.914216 122.5043 35.524942 120.336572 36.696817 C 118.176079 37.863869 115.740701 38.447395 113.035261 38.447395 Z M 113.035261 33.301755 C 114.571237 33.301755 115.960126 32.944888 117.204339 32.235976 C 118.448552 31.524652 119.427525 30.538445 120.136437 29.274942 C 120.847761 28.006616 121.202217 26.562268 121.202217 24.941898 C 121.202217 23.32635 120.847761 21.884413 120.136437 20.616088 C 119.427525 19.347762 118.448552 18.361555 117.204339 17.655054 C 115.960126 16.946142 114.571237 16.591686 113.035261 16.591686 C 111.492051 16.591686 110.09834 16.946142 108.854127 17.655054 C 107.609914 18.361555 106.633351 19.347762 105.922028 20.616088 C 105.210705 21.884413 104.856249 23.32635 104.856249 24.941898 C 104.856249 26.562268 105.210705 28.006616 105.922028 29.274942 C 106.633351 30.538445 107.609914 31.524652 108.854127 32.235976 C 110.09834 32.944888 111.492051 33.301755 113.035261 33.301755 Z M 141.37004 27.746199 L 137.86406 31.396855 L 137.86406 37.9989 L 131.864832 37.9989 L 131.864832 11.89213 L 137.86406 11.89213 L 137.86406 24.085899 L 149.4309 11.89213 L 156.141452 11.89213 L 145.331749 23.528896 L 156.778026 37.9989 L 149.729897 37.9989 Z M 179.680225 33.154668 L 179.680225 37.9989 L 159.464176 37.9989 L 159.464176 11.89213 L 179.197971 11.89213 L 179.197971 16.736362 L 165.463404 16.736362 L 165.463404 22.410069 L 177.59448 22.410069 L 177.59448 27.109625 L 165.463404 27.109625 L 165.463404 33.154668 Z M 218.993495 11.89213 L 218.993495 37.9989 L 212.948453 37.9989 L 212.948453 27.29047 L 201.092261 27.29047 L 201.092261 37.9989 L 195.044807 37.9989 L 195.044807 11.89213 L 201.092261 11.89213 L 201.092261 22.180999 L 212.948453 22.180999 L 212.948453 11.89213 Z M 245.396851 33.154668 L 245.396851 37.9989 L 225.180802 37.9989 L 225.180802 11.89213 L 244.914598 11.89213 L 244.914598 16.736362 L 231.182442 16.736362 L 231.182442 22.410069 L 243.311106 22.410069 L 243.311106 27.109625 L 231.182442 27.109625 L 231.182442 33.154668 Z M 266.845057 37.9989 L 261.807923 30.724112 L 256.252368 30.724112 L 256.252368 37.9989 L 250.207325 37.9989 L 250.207325 11.89213 L 261.506515 11.89213 C 263.82133 11.89213 265.827503 12.277932 267.527445 13.049537 C 269.232209 13.818731 270.543938 14.915856 271.460218 16.336092 C 272.383733 17.751505 272.844285 19.424923 272.844285 21.36358 C 272.844285 23.304649 272.376499 24.980478 271.44334 26.388657 C 270.515002 27.792014 269.191218 28.862615 267.471986 29.602874 L 273.326538 37.9989 Z M 266.724493 21.36358 C 266.724493 19.899942 266.251885 18.776292 265.304258 17.992631 C 264.363864 17.204147 262.987032 16.8087 261.171349 16.8087 L 256.252368 16.8087 L 256.252368 25.916049 L 261.171349 25.916049 C 262.987032 25.916049 264.363864 25.51819 265.304258 24.722473 C 266.251885 23.926755 266.724493 22.807928 266.724493 21.36358 Z M 290.268088 38.447395 C 287.555415 38.447395 285.10798 37.863869 282.928197 36.696817 C 280.755646 35.524942 279.053293 33.914216 277.818725 31.862229 C 276.593802 29.810243 275.981341 27.502662 275.981341 24.941898 C 275.981341 22.385957 276.593802 20.080787 277.818725 18.0288 C 279.053293 15.976813 280.755646 14.368499 282.928197 13.203858 C 285.10798 12.031983 287.555415 11.446046 290.268088 11.446046 C 292.975939 11.446046 295.411317 12.031983 297.571811 13.203858 C 299.739539 14.368499 301.441892 15.976813 302.681283 18.0288 C 303.925495 20.080787 304.547602 22.385957 304.547602 24.941898 C 304.547602 27.502662 303.925495 29.810243 302.681283 31.862229 C 301.441892 33.914216 299.739539 35.524942 297.571811 36.696817 C 295.411317 37.863869 292.975939 38.447395 290.268088 38.447395 Z M 290.268088 33.301755 C 291.804064 33.301755 293.195365 32.944888 294.439577 32.235976 C 295.68379 31.524652 296.660353 30.538445 297.371676 29.274942 C 298.080588 28.006616 298.437455 26.562268 298.437455 24.941898 C 298.437455 23.32635 298.080588 21.884413 297.371676 20.616088 C 296.660353 19.347762 295.68379 18.361555 294.439577 17.655054 C 293.195365 16.946142 291.804064 16.591686 290.268088 16.591686 C 288.72729 16.591686 287.333578 16.946142 286.089365 17.655054 C 284.845153 18.361555 283.866179 19.347762 283.157267 20.616088 C 282.445944 21.884413 282.091488 23.32635 282.091488 24.941898 C 282.091488 26.562268 282.445944 28.006616 283.157267 29.274942 C 283.866179 30.538445 284.845153 31.524652 286.089365 32.235976 C 287.333578 32.944888 288.72729 33.301755 290.268088 33.301755 Z M 290.268088 33.301755 " stroke="#d5f1f0" stroke-width="2.798025" stroke-opacity="1" stroke-miterlimit="4"/><g fill="#020bb5" fill-opacity="1"><g transform="translate(175.771624, 628.201001)"><g><path d="M 18.90625 0.71875 C 15.5625 0.71875 12.328125 0.265625 9.203125 -0.640625 C 6.085938 -1.546875 3.582031 -2.722656 1.6875 -4.171875 L 5.015625 -11.546875 C 6.828125 -10.210938 8.976562 -9.140625 11.46875 -8.328125 C 13.96875 -7.523438 16.46875 -7.125 18.96875 -7.125 C 21.75 -7.125 23.800781 -7.535156 25.125 -8.359375 C 26.457031 -9.191406 27.125 -10.289062 27.125 -11.65625 C 27.125 -12.664062 26.726562 -13.503906 25.9375 -14.171875 C 25.15625 -14.835938 24.148438 -15.367188 22.921875 -15.765625 C 21.703125 -16.171875 20.046875 -16.613281 17.953125 -17.09375 C 14.722656 -17.863281 12.082031 -18.628906 10.03125 -19.390625 C 7.976562 -20.160156 6.210938 -21.390625 4.734375 -23.078125 C 3.265625 -24.773438 2.53125 -27.03125 2.53125 -29.84375 C 2.53125 -32.300781 3.195312 -34.523438 4.53125 -36.515625 C 5.863281 -38.515625 7.867188 -40.097656 10.546875 -41.265625 C 13.222656 -42.429688 16.492188 -43.015625 20.359375 -43.015625 C 23.054688 -43.015625 25.691406 -42.691406 28.265625 -42.046875 C 30.847656 -41.410156 33.109375 -40.488281 35.046875 -39.28125 L 32.03125 -31.84375 C 28.113281 -34.0625 24.203125 -35.171875 20.296875 -35.171875 C 17.554688 -35.171875 15.53125 -34.722656 14.21875 -33.828125 C 12.914062 -32.941406 12.265625 -31.773438 12.265625 -30.328125 C 12.265625 -28.878906 13.019531 -27.800781 14.53125 -27.09375 C 16.039062 -26.394531 18.347656 -25.703125 21.453125 -25.015625 C 24.671875 -24.242188 27.304688 -23.476562 29.359375 -22.71875 C 31.421875 -21.957031 33.1875 -20.75 34.65625 -19.09375 C 36.125 -17.4375 36.859375 -15.203125 36.859375 -12.390625 C 36.859375 -9.972656 36.179688 -7.765625 34.828125 -5.765625 C 33.484375 -3.773438 31.460938 -2.195312 28.765625 -1.03125 C 26.066406 0.132812 22.78125 0.71875 18.90625 0.71875 Z M 18.90625 0.71875 "/></g></g></g><g fill="#020bb5" fill-opacity="1"><g transform="translate(214.320066, 628.201001)"><g><path d="M 13.78125 -34.3125 L 0.234375 -34.3125 L 0.234375 -42.296875 L 37.09375 -42.296875 L 37.09375 -34.3125 L 23.5625 -34.3125 L 23.5625 0 L 13.78125 0 Z M 13.78125 -34.3125 "/></g></g></g><g fill="#020bb5" fill-opacity="1"><g transform="translate(251.660108, 628.201001)"><g><path d="M 31.96875 0 L 23.8125 -11.78125 L 14.796875 -11.78125 L 14.796875 0 L 5.015625 0 L 5.015625 -42.296875 L 23.328125 -42.296875 C 27.066406 -42.296875 30.316406 -41.671875 33.078125 -40.421875 C 35.835938 -39.171875 37.960938 -37.394531 39.453125 -35.09375 C 40.941406 -32.800781 41.6875 -30.085938 41.6875 -26.953125 C 41.6875 -23.804688 40.929688 -21.09375 39.421875 -18.8125 C 37.910156 -16.539062 35.765625 -14.800781 32.984375 -13.59375 L 42.484375 0 Z M 31.78125 -26.953125 C 31.78125 -29.328125 31.015625 -31.144531 29.484375 -32.40625 C 27.953125 -33.675781 25.71875 -34.3125 22.78125 -34.3125 L 14.796875 -34.3125 L 14.796875 -19.578125 L 22.78125 -19.578125 C 25.71875 -19.578125 27.953125 -20.21875 29.484375 -21.5 C 31.015625 -22.789062 31.78125 -24.609375 31.78125 -26.953125 Z M 31.78125 -26.953125 "/></g></g></g><g fill="#020bb5" fill-opacity="1"><g transform="translate(296.069383, 628.201001)"><g><path d="M 25.5 0.71875 C 21.101562 0.71875 17.144531 -0.222656 13.625 -2.109375 C 10.101562 -4.003906 7.34375 -6.613281 5.34375 -9.9375 C 3.351562 -13.257812 2.359375 -16.992188 2.359375 -21.140625 C 2.359375 -25.296875 3.351562 -29.035156 5.34375 -32.359375 C 7.34375 -35.679688 10.101562 -38.285156 13.625 -40.171875 C 17.144531 -42.066406 21.101562 -43.015625 25.5 -43.015625 C 29.882812 -43.015625 33.828125 -42.066406 37.328125 -40.171875 C 40.835938 -38.285156 43.597656 -35.679688 45.609375 -32.359375 C 47.628906 -29.035156 48.640625 -25.296875 48.640625 -21.140625 C 48.640625 -16.992188 47.628906 -13.257812 45.609375 -9.9375 C 43.597656 -6.613281 40.835938 -4.003906 37.328125 -2.109375 C 33.828125 -0.222656 29.882812 0.71875 25.5 0.71875 Z M 25.5 -7.609375 C 28 -7.609375 30.253906 -8.179688 32.265625 -9.328125 C 34.273438 -10.484375 35.851562 -12.085938 37 -14.140625 C 38.15625 -16.191406 38.734375 -18.523438 38.734375 -21.140625 C 38.734375 -23.765625 38.15625 -26.101562 37 -28.15625 C 35.851562 -30.207031 34.273438 -31.804688 32.265625 -32.953125 C 30.253906 -34.109375 28 -34.6875 25.5 -34.6875 C 23 -34.6875 20.738281 -34.109375 18.71875 -32.953125 C 16.707031 -31.804688 15.128906 -30.207031 13.984375 -28.15625 C 12.835938 -26.101562 12.265625 -23.765625 12.265625 -21.140625 C 12.265625 -18.523438 12.835938 -16.191406 13.984375 -14.140625 C 15.128906 -12.085938 16.707031 -10.484375 18.71875 -9.328125 C 20.738281 -8.179688 23 -7.609375 25.5 -7.609375 Z M 25.5 -7.609375 "/></g></g></g><g fill="#020bb5" fill-opacity="1"><g transform="translate(347.064505, 628.201001)"><g><path d="M 20.421875 -16.609375 L 14.75 -10.6875 L 14.75 0 L 5.015625 0 L 5.015625 -42.296875 L 14.75 -42.296875 L 14.75 -22.53125 L 33.46875 -42.296875 L 44.34375 -42.296875 L 26.828125 -23.4375 L 45.375 0 L 33.953125 0 Z M 20.421875 -16.609375 "/></g></g></g><g fill="#020bb5" fill-opacity="1"><g transform="translate(391.775873, 628.201001)"><g><path d="M 37.765625 -7.859375 L 37.765625 0 L 5.015625 0 L 5.015625 -42.296875 L 36.984375 -42.296875 L 36.984375 -34.4375 L 14.75 -34.4375 L 14.75 -25.25 L 34.375 -25.25 L 34.375 -17.640625 L 14.75 -17.640625 L 14.75 -7.859375 Z M 37.765625 -7.859375 "/></g></g></g><g fill="#020bb5" fill-opacity="1"><g transform="translate(432.318218, 628.201001)"><g/></g></g><g fill="#020bb5" fill-opacity="1"><g transform="translate(449.417306, 628.201001)"><g><path d="M 43.8125 -42.296875 L 43.8125 0 L 34.015625 0 L 34.015625 -17.34375 L 14.796875 -17.34375 L 14.796875 0 L 5.015625 0 L 5.015625 -42.296875 L 14.796875 -42.296875 L 14.796875 -25.625 L 34.015625 -25.625 L 34.015625 -42.296875 Z M 43.8125 -42.296875 "/></g></g></g><g fill="#020bb5" fill-opacity="1"><g transform="translate(498.237284, 628.201001)"><g><path d="M 37.765625 -7.859375 L 37.765625 0 L 5.015625 0 L 5.015625 -42.296875 L 36.984375 -42.296875 L 36.984375 -34.4375 L 14.75 -34.4375 L 14.75 -25.25 L 34.375 -25.25 L 34.375 -17.640625 L 14.75 -17.640625 L 14.75 -7.859375 Z M 37.765625 -7.859375 "/></g></g></g><g fill="#020bb5" fill-opacity="1"><g transform="translate(538.779628, 628.201001)"><g><path d="M 31.96875 0 L 23.8125 -11.78125 L 14.796875 -11.78125 L 14.796875 0 L 5.015625 0 L 5.015625 -42.296875 L 23.328125 -42.296875 C 27.066406 -42.296875 30.316406 -41.671875 33.078125 -40.421875 C 35.835938 -39.171875 37.960938 -37.394531 39.453125 -35.09375 C 40.941406 -32.800781 41.6875 -30.085938 41.6875 -26.953125 C 41.6875 -23.804688 40.929688 -21.09375 39.421875 -18.8125 C 37.910156 -16.539062 35.765625 -14.800781 32.984375 -13.59375 L 42.484375 0 Z M 31.78125 -26.953125 C 31.78125 -29.328125 31.015625 -31.144531 29.484375 -32.40625 C 27.953125 -33.675781 25.71875 -34.3125 22.78125 -34.3125 L 14.796875 -34.3125 L 14.796875 -19.578125 L 22.78125 -19.578125 C 25.71875 -19.578125 27.953125 -20.21875 29.484375 -21.5 C 31.015625 -22.789062 31.78125 -24.609375 31.78125 -26.953125 Z M 31.78125 -26.953125 "/></g></g></g><g fill="#020bb5" fill-opacity="1"><g transform="translate(583.188903, 628.201001)"><g><path d="M 25.5 0.71875 C 21.101562 0.71875 17.144531 -0.222656 13.625 -2.109375 C 10.101562 -4.003906 7.34375 -6.613281 5.34375 -9.9375 C 3.351562 -13.257812 2.359375 -16.992188 2.359375 -21.140625 C 2.359375 -25.296875 3.351562 -29.035156 5.34375 -32.359375 C 7.34375 -35.679688 10.101562 -38.285156 13.625 -40.171875 C 17.144531 -42.066406 21.101562 -43.015625 25.5 -43.015625 C 29.882812 -43.015625 33.828125 -42.066406 37.328125 -40.171875 C 40.835938 -38.285156 43.597656 -35.679688 45.609375 -32.359375 C 47.628906 -29.035156 48.640625 -25.296875 48.640625 -21.140625 C 48.640625 -16.992188 47.628906 -13.257812 45.609375 -9.9375 C 43.597656 -6.613281 40.835938 -4.003906 37.328125 -2.109375 C 33.828125 -0.222656 29.882812 0.71875 25.5 0.71875 Z M 25.5 -7.609375 C 28 -7.609375 30.253906 -8.179688 32.265625 -9.328125 C 34.273438 -10.484375 35.851562 -12.085938 37 -14.140625 C 38.15625 -16.191406 38.734375 -18.523438 38.734375 -21.140625 C 38.734375 -23.765625 38.15625 -26.101562 37 -28.15625 C 35.851562 -30.207031 34.273438 -31.804688 32.265625 -32.953125 C 30.253906 -34.109375 28 -34.6875 25.5 -34.6875 C 23 -34.6875 20.738281 -34.109375 18.71875 -32.953125 C 16.707031 -31.804688 15.128906 -30.207031 13.984375 -28.15625 C 12.835938 -26.101562 12.265625 -23.765625 12.265625 -21.140625 C 12.265625 -18.523438 12.835938 -16.191406 13.984375 -14.140625 C 15.128906 -12.085938 16.707031 -10.484375 18.71875 -9.328125 C 20.738281 -8.179688 23 -7.609375 25.5 -7.609375 Z M 25.5 -7.609375 "/></g></g></g></svg>