<svg xmlns="http://www.w3.org/2000/svg" xmlns:xlink="http://www.w3.org/1999/xlink" width="1080" zoomAndPan="magnify" viewBox="0 0 810 809.999993" height="1080" preserveAspectRatio="xMidYMid meet" version="1.0"><defs><g/><clipPath id="9f7869fbf9"><path d="M 239 455 L 253 455 L 253 474.105469 L 239 474.105469 Z M 239 455 " clip-rule="nonzero"/></clipPath><clipPath id="3d6849ce90"><path d="M 206 385 L 281.683594 385 L 281.683594 465 L 206 465 Z M 206 385 " clip-rule="nonzero"/></clipPath></defs><g clip-path="url(#9f7869fbf9)"><path fill="#2ac2f3" d="M 239.859375 474.105469 L 239.859375 463.910156 C 244.886719 462.195312 249.328125 459.210938 252.789062 455.332031 L 252.789062 474.105469 L 239.859375 474.105469 " fill-opacity="1" fill-rule="nonzero"/></g><path fill="#2ac2f3" d="M 260.800781 442.039062 L 259.738281 442.039062 C 258.546875 447.0625 256.121094 451.605469 252.789062 455.328125 L 261.5 455.328125 C 259.632812 453.578125 258.464844 451.085938 258.464844 448.320312 C 258.464844 445.921875 259.34375 443.726562 260.800781 442.039062 " fill-opacity="1" fill-rule="nonzero"/><g clip-path="url(#3d6849ce90)"><path fill="#1b86ea" d="M 268.082031 441.171875 C 272.023438 441.171875 275.230469 444.378906 275.230469 448.320312 C 275.230469 452.265625 272.023438 455.472656 268.082031 455.472656 C 264.140625 455.472656 260.933594 452.265625 260.933594 448.320312 C 260.933594 444.378906 264.140625 441.171875 268.082031 441.171875 Z M 249.820312 386.601562 C 246.597656 388.03125 244.359375 390.414062 243.347656 393.496094 C 242.195312 397 242.550781 400.886719 244.347656 404.441406 C 245.25 406.222656 246.398438 407.863281 247.59375 409.523438 C 248.757812 411.144531 250.011719 412.800781 251.316406 414.445312 C 251.363281 414.507812 251.421875 414.554688 251.484375 414.59375 C 254.804688 419.558594 256.558594 425.351562 256.558594 431.351562 C 256.558594 434.886719 255.953125 438.347656 254.757812 441.644531 L 253.1875 441.644531 L 253.1875 422.867188 L 239.460938 422.867188 L 239.460938 441.644531 L 219.699219 441.644531 L 219.699219 455.726562 L 239.460938 455.726562 L 239.460938 458.558594 C 235.363281 460.539062 230.960938 461.539062 226.371094 461.539062 C 219.238281 461.539062 212.316406 459.003906 206.882812 454.402344 L 206.320312 454.960938 C 206.59375 455.289062 206.886719 455.617188 207.1875 455.945312 L 207.210938 455.964844 C 212.941406 461.234375 220.386719 464.136719 228.175781 464.136719 C 232.277344 464.136719 236.257812 463.351562 240.011719 461.796875 C 244.203125 460.0625 248.035156 457.367188 251.101562 453.996094 C 254.183594 450.609375 256.507812 446.515625 257.828125 442.15625 C 258.710938 439.25 259.160156 436.222656 259.160156 433.152344 C 259.160156 425.691406 256.46875 418.488281 251.585938 412.859375 C 250.308594 411.226562 249.105469 409.609375 248.007812 408.050781 C 246.722656 406.234375 245.710938 404.675781 244.96875 402.964844 C 243.292969 399.121094 243.546875 394.589844 245.605469 391.421875 C 247.101562 389.125 250.003906 387.371094 253.375 386.730469 C 256.457031 386.144531 260.117188 386.417969 263.417969 387.484375 C 270.851562 389.882812 275.039062 397.492188 276.875 401.8125 C 279.667969 408.382812 280.734375 415.960938 279.960938 423.726562 C 279.453125 428.847656 277.746094 435.972656 272.550781 440.96875 C 271.246094 440.171875 269.71875 439.714844 268.082031 439.714844 C 263.335938 439.714844 259.476562 443.574219 259.476562 448.320312 C 259.476562 453.066406 263.335938 456.929688 268.082031 456.929688 C 272.828125 456.929688 276.6875 453.066406 276.6875 448.320312 C 276.6875 445.644531 275.460938 443.25 273.539062 441.671875 C 274.0625 441.160156 274.550781 440.636719 274.992188 440.109375 C 278.851562 435.496094 281.046875 428.886719 281.339844 420.992188 C 281.652344 412.566406 279.945312 404.644531 276.40625 398.082031 C 274.566406 394.675781 272.339844 391.859375 269.785156 389.703125 C 267.109375 387.449219 263.867188 386.046875 260.144531 385.527344 C 256.152344 384.972656 252.679688 385.332031 249.820312 386.601562 " fill-opacity="1" fill-rule="nonzero"/></g><path fill="#2ac2f3" d="M 268.082031 442.839844 C 265.054688 442.839844 262.597656 445.292969 262.597656 448.320312 C 262.597656 451.347656 265.054688 453.804688 268.082031 453.804688 C 271.109375 453.804688 273.566406 451.347656 273.566406 448.320312 C 273.566406 445.292969 271.109375 442.839844 268.082031 442.839844 " fill-opacity="1" fill-rule="nonzero"/><path stroke-linecap="butt" transform="matrix(0.75, 0, 0, 0.75, 268.004872, 397.85628)" fill="none" stroke-linejoin="miter" d="M 66.436215 99.998923 L 53.576839 81.420797 L 39.389339 81.420797 L 39.389339 99.998923 L 23.951838 99.998923 L 23.951838 33.337462 L 52.806006 33.337462 C 58.712256 33.337462 63.837257 34.321837 68.175799 36.290587 C 72.535174 38.259337 75.884132 41.056212 78.222674 44.681212 C 80.576841 48.295796 81.759133 52.571838 81.759133 57.519755 C 81.759133 62.478088 80.561216 66.759338 78.175799 70.353089 C 75.806007 73.936422 72.425799 76.670797 68.040382 78.561422 L 82.988299 99.998923 Z M 66.134132 57.519755 C 66.134132 53.785379 64.92059 50.915588 62.503923 48.915587 C 60.102881 46.899962 56.582048 45.894754 51.946631 45.894754 L 39.389339 45.894754 L 39.389339 69.144755 L 51.946631 69.144755 C 56.582048 69.144755 60.102881 68.12913 62.503923 66.09788 C 64.92059 64.06663 66.134132 61.207255 66.134132 57.519755 Z M 126.248718 101.139548 C 119.316426 101.139548 113.071634 99.649965 107.503926 96.676007 C 101.95705 93.681215 97.608092 89.566631 94.462258 84.327048 C 91.33205 79.087464 89.764341 73.196839 89.764341 66.655172 C 89.764341 60.12913 91.33205 54.248921 94.462258 49.009337 C 97.608092 43.769754 101.95705 39.660379 107.503926 36.68642 C 113.071634 33.691628 119.316426 32.196837 126.248718 32.196837 C 133.160177 32.196837 139.378927 33.691628 144.894552 36.68642 C 150.431011 39.660379 154.774761 43.769754 157.941428 49.009337 C 161.118512 54.248921 162.707053 60.12913 162.707053 66.655172 C 162.707053 73.196839 161.118512 79.087464 157.941428 84.327048 C 154.774761 89.566631 150.431011 93.681215 144.894552 96.676007 C 139.378927 99.649965 133.160177 101.139548 126.248718 101.139548 Z M 126.248718 88.004131 C 130.170593 88.004131 133.717469 87.092673 136.894552 85.280173 C 140.071635 83.467673 142.571636 80.946839 144.384136 77.722881 C 146.196636 74.483297 147.102886 70.795797 147.102886 66.655172 C 147.102886 62.53538 146.196636 58.853088 144.384136 55.613504 C 142.571636 52.373921 140.071635 49.853088 136.894552 48.056212 C 133.717469 46.243712 130.170593 45.332254 126.248718 45.332254 C 122.311218 45.332254 118.753926 46.243712 115.571634 48.056212 C 112.394551 49.853088 109.899759 52.373921 108.087259 55.613504 C 106.274759 58.853088 105.368509 62.53538 105.368509 66.655172 C 105.368509 70.795797 106.274759 74.483297 108.087259 77.722881 C 109.899759 80.946839 112.394551 83.467673 115.571634 85.280173 C 118.753926 87.092673 122.311218 88.004131 126.248718 88.004131 Z M 198.602888 73.81663 L 189.649763 83.144756 L 189.649763 99.998923 L 174.326846 99.998923 L 174.326846 33.337462 L 189.649763 33.337462 L 189.649763 64.47288 L 219.181014 33.337462 L 236.316432 33.337462 L 208.717472 63.051005 L 237.94664 99.998923 L 219.94664 99.998923 Z M 296.420602 87.629131 L 296.420602 99.998923 L 244.800807 99.998923 L 244.800807 33.337462 L 295.186227 33.337462 L 295.186227 45.707254 L 260.123725 45.707254 L 260.123725 60.19163 L 291.097685 60.19163 L 291.097685 72.19163 L 260.123725 72.19163 L 260.123725 87.629131 Z M 396.806023 33.337462 L 396.806023 99.998923 L 381.368523 99.998923 L 381.368523 72.655172 L 351.092479 72.655172 L 351.092479 99.998923 L 335.654979 99.998923 L 335.654979 33.337462 L 351.092479 33.337462 L 351.092479 59.613505 L 381.368523 59.613505 L 381.368523 33.337462 Z M 464.222693 87.629131 L 464.222693 99.998923 L 412.602899 99.998923 L 412.602899 33.337462 L 462.993527 33.337462 L 462.993527 45.707254 L 427.925817 45.707254 L 427.925817 60.19163 L 458.899777 60.19163 L 458.899777 72.19163 L 427.925817 72.19163 L 427.925817 87.629131 Z M 518.988321 99.998923 L 506.128946 81.420797 L 491.946653 81.420797 L 491.946653 99.998923 L 476.503944 99.998923 L 476.503944 33.337462 L 505.363321 33.337462 C 511.269571 33.337462 516.389363 34.321837 520.733113 36.290587 C 525.08728 38.259337 528.436238 41.056212 530.77478 44.681212 C 533.134155 48.295796 534.311239 52.571838 534.311239 57.519755 C 534.311239 62.478088 533.11853 66.759338 530.727905 70.353089 C 528.358113 73.936422 524.977905 76.670797 520.592488 78.561422 L 535.545614 99.998923 Z M 518.686238 57.519755 C 518.686238 53.785379 517.477904 50.915588 515.056029 48.915587 C 512.654988 46.899962 509.134154 45.894754 504.503945 45.894754 L 491.946653 45.894754 L 491.946653 69.144755 L 504.503945 69.144755 C 509.134154 69.144755 512.654988 68.12913 515.056029 66.09788 C 517.477904 64.06663 518.686238 61.207255 518.686238 57.519755 Z M 578.800824 101.139548 C 571.873741 101.139548 565.62374 99.649965 560.06124 96.676007 C 554.509156 93.681215 550.160198 89.566631 547.014364 84.327048 C 543.884156 79.087464 542.316447 73.196839 542.316447 66.655172 C 542.316447 60.12913 543.884156 54.248921 547.014364 49.009337 C 550.160198 43.769754 554.509156 39.660379 560.06124 36.68642 C 565.62374 33.691628 571.873741 32.196837 578.800824 32.196837 C 585.712283 32.196837 591.931033 33.691628 597.446659 36.68642 C 602.983117 39.660379 607.332076 43.769754 610.493534 49.009337 C 613.670618 54.248921 615.259159 60.12913 615.259159 66.655172 C 615.259159 73.196839 613.670618 79.087464 610.493534 84.327048 C 607.332076 89.566631 602.983117 93.681215 597.446659 96.676007 C 591.931033 99.649965 585.712283 101.139548 578.800824 101.139548 Z M 578.800824 88.004131 C 582.722699 88.004131 586.274783 87.092673 589.451866 85.280173 C 592.62895 83.467673 595.123742 80.946839 596.936242 77.722881 C 598.748742 74.483297 599.6602 70.795797 599.6602 66.655172 C 599.6602 62.53538 598.748742 58.853088 596.936242 55.613504 C 595.123742 52.373921 592.62895 49.853088 589.451866 48.056212 C 586.274783 46.243712 582.722699 45.332254 578.800824 45.332254 C 574.863324 45.332254 571.306032 46.243712 568.128949 48.056212 C 564.951865 49.853088 562.457073 52.373921 560.639365 55.613504 C 558.826865 58.853088 557.920615 62.53538 557.920615 66.655172 C 557.920615 70.795797 558.826865 74.483297 560.639365 77.722881 C 562.457073 80.946839 564.951865 83.467673 568.128949 85.280173 C 571.306032 87.092673 574.863324 88.004131 578.800824 88.004131 Z M 578.800824 88.004131 " stroke="#d5f1f0" stroke-width="7.143712" stroke-opacity="1" stroke-miterlimit="4"/><g fill="#020bb5" fill-opacity="1"><g transform="translate(280.040028, 472.856276)"><g><path d="M 37.796875 0 L 28.140625 -13.9375 L 17.5 -13.9375 L 17.5 0 L 5.921875 0 L 5.921875 -50 L 27.578125 -50 C 32.003906 -50 35.847656 -49.257812 39.109375 -47.78125 C 42.367188 -46.3125 44.878906 -44.21875 46.640625 -41.5 C 48.410156 -38.789062 49.296875 -35.578125 49.296875 -31.859375 C 49.296875 -28.140625 48.398438 -24.9375 46.609375 -22.25 C 44.828125 -19.5625 42.289062 -17.503906 39 -16.078125 L 50.21875 0 Z M 37.578125 -31.859375 C 37.578125 -34.671875 36.671875 -36.828125 34.859375 -38.328125 C 33.046875 -39.828125 30.40625 -40.578125 26.9375 -40.578125 L 17.5 -40.578125 L 17.5 -23.140625 L 26.9375 -23.140625 C 30.40625 -23.140625 33.046875 -23.898438 34.859375 -25.421875 C 36.671875 -26.953125 37.578125 -29.097656 37.578125 -31.859375 Z M 37.578125 -31.859375 "/></g></g></g><g fill="#020bb5" fill-opacity="1"><g transform="translate(332.537988, 472.856276)"><g><path d="M 30.140625 0.859375 C 24.953125 0.859375 20.273438 -0.257812 16.109375 -2.5 C 11.941406 -4.738281 8.675781 -7.820312 6.3125 -11.75 C 3.957031 -15.675781 2.78125 -20.09375 2.78125 -25 C 2.78125 -29.90625 3.957031 -34.320312 6.3125 -38.25 C 8.675781 -42.175781 11.941406 -45.257812 16.109375 -47.5 C 20.273438 -49.738281 24.953125 -50.859375 30.140625 -50.859375 C 35.335938 -50.859375 40.003906 -49.738281 44.140625 -47.5 C 48.285156 -45.257812 51.546875 -42.175781 53.921875 -38.25 C 56.304688 -34.320312 57.5 -29.90625 57.5 -25 C 57.5 -20.09375 56.304688 -15.675781 53.921875 -11.75 C 51.546875 -7.820312 48.285156 -4.738281 44.140625 -2.5 C 40.003906 -0.257812 35.335938 0.859375 30.140625 0.859375 Z M 30.140625 -9 C 33.097656 -9 35.765625 -9.675781 38.140625 -11.03125 C 40.523438 -12.394531 42.394531 -14.289062 43.75 -16.71875 C 45.113281 -19.144531 45.796875 -21.90625 45.796875 -25 C 45.796875 -28.09375 45.113281 -30.851562 43.75 -33.28125 C 42.394531 -35.71875 40.523438 -37.613281 38.140625 -38.96875 C 35.765625 -40.320312 33.097656 -41 30.140625 -41 C 27.191406 -41 24.523438 -40.320312 22.140625 -38.96875 C 19.765625 -37.613281 17.894531 -35.71875 16.53125 -33.28125 C 15.175781 -30.851562 14.5 -28.09375 14.5 -25 C 14.5 -21.90625 15.175781 -19.144531 16.53125 -16.71875 C 17.894531 -14.289062 19.765625 -12.394531 22.140625 -11.03125 C 24.523438 -9.675781 27.191406 -9 30.140625 -9 Z M 30.140625 -9 "/></g></g></g><g fill="#020bb5" fill-opacity="1"><g transform="translate(392.821353, 472.856276)"><g><path d="M 24.140625 -19.640625 L 17.4375 -12.640625 L 17.4375 0 L 5.921875 0 L 5.921875 -50 L 17.4375 -50 L 17.4375 -26.640625 L 39.578125 -50 L 52.4375 -50 L 31.71875 -27.71875 L 53.65625 0 L 40.140625 0 Z M 24.140625 -19.640625 "/></g></g></g><g fill="#020bb5" fill-opacity="1"><g transform="translate(445.676437, 472.856276)"><g><path d="M 44.65625 -9.28125 L 44.65625 0 L 5.921875 0 L 5.921875 -50 L 43.71875 -50 L 43.71875 -40.71875 L 17.4375 -40.71875 L 17.4375 -29.859375 L 40.640625 -29.859375 L 40.640625 -20.859375 L 17.4375 -20.859375 L 17.4375 -9.28125 Z M 44.65625 -9.28125 "/></g></g></g><g fill="#020bb5" fill-opacity="1"><g transform="translate(493.603159, 472.856276)"><g/></g></g><g fill="#020bb5" fill-opacity="1"><g transform="translate(513.816674, 472.856276)"><g><path d="M 51.796875 -50 L 51.796875 0 L 40.21875 0 L 40.21875 -20.5 L 17.5 -20.5 L 17.5 0 L 5.921875 0 L 5.921875 -50 L 17.5 -50 L 17.5 -30.296875 L 40.21875 -30.296875 L 40.21875 -50 Z M 51.796875 -50 "/></g></g></g><g fill="#020bb5" fill-opacity="1"><g transform="translate(571.528722, 472.856276)"><g><path d="M 44.65625 -9.28125 L 44.65625 0 L 5.921875 0 L 5.921875 -50 L 43.71875 -50 L 43.71875 -40.71875 L 17.4375 -40.71875 L 17.4375 -29.859375 L 40.640625 -29.859375 L 40.640625 -20.859375 L 17.4375 -20.859375 L 17.4375 -9.28125 Z M 44.65625 -9.28125 "/></g></g></g><g fill="#020bb5" fill-opacity="1"><g transform="translate(619.455432, 472.856276)"><g><path d="M 37.796875 0 L 28.140625 -13.9375 L 17.5 -13.9375 L 17.5 0 L 5.921875 0 L 5.921875 -50 L 27.578125 -50 C 32.003906 -50 35.847656 -49.257812 39.109375 -47.78125 C 42.367188 -46.3125 44.878906 -44.21875 46.640625 -41.5 C 48.410156 -38.789062 49.296875 -35.578125 49.296875 -31.859375 C 49.296875 -28.140625 48.398438 -24.9375 46.609375 -22.25 C 44.828125 -19.5625 42.289062 -17.503906 39 -16.078125 L 50.21875 0 Z M 37.578125 -31.859375 C 37.578125 -34.671875 36.671875 -36.828125 34.859375 -38.328125 C 33.046875 -39.828125 30.40625 -40.578125 26.9375 -40.578125 L 17.5 -40.578125 L 17.5 -23.140625 L 26.9375 -23.140625 C 30.40625 -23.140625 33.046875 -23.898438 34.859375 -25.421875 C 36.671875 -26.953125 37.578125 -29.097656 37.578125 -31.859375 Z M 37.578125 -31.859375 "/></g></g></g><g fill="#020bb5" fill-opacity="1"><g transform="translate(671.953369, 472.856276)"><g><path d="M 30.140625 0.859375 C 24.953125 0.859375 20.273438 -0.257812 16.109375 -2.5 C 11.941406 -4.738281 8.675781 -7.820312 6.3125 -11.75 C 3.957031 -15.675781 2.78125 -20.09375 2.78125 -25 C 2.78125 -29.90625 3.957031 -34.320312 6.3125 -38.25 C 8.675781 -42.175781 11.941406 -45.257812 16.109375 -47.5 C 20.273438 -49.738281 24.953125 -50.859375 30.140625 -50.859375 C 35.335938 -50.859375 40.003906 -49.738281 44.140625 -47.5 C 48.285156 -45.257812 51.546875 -42.175781 53.921875 -38.25 C 56.304688 -34.320312 57.5 -29.90625 57.5 -25 C 57.5 -20.09375 56.304688 -15.675781 53.921875 -11.75 C 51.546875 -7.820312 48.285156 -4.738281 44.140625 -2.5 C 40.003906 -0.257812 35.335938 0.859375 30.140625 0.859375 Z M 30.140625 -9 C 33.097656 -9 35.765625 -9.675781 38.140625 -11.03125 C 40.523438 -12.394531 42.394531 -14.289062 43.75 -16.71875 C 45.113281 -19.144531 45.796875 -21.90625 45.796875 -25 C 45.796875 -28.09375 45.113281 -30.851562 43.75 -33.28125 C 42.394531 -35.71875 40.523438 -37.613281 38.140625 -38.96875 C 35.765625 -40.320312 33.097656 -41 30.140625 -41 C 27.191406 -41 24.523438 -40.320312 22.140625 -38.96875 C 19.765625 -37.613281 17.894531 -35.71875 16.53125 -33.28125 C 15.175781 -30.851562 14.5 -28.09375 14.5 -25 C 14.5 -21.90625 15.175781 -19.144531 16.53125 -16.71875 C 17.894531 -14.289062 19.765625 -12.394531 22.140625 -11.03125 C 24.523438 -9.675781 27.191406 -9 30.140625 -9 Z M 30.140625 -9 "/></g></g></g><path stroke-linecap="butt" transform="matrix(0.75, 0, 0, 0.75, 161.95441, 397.85628)" fill="none" stroke-linejoin="miter" d="M 38.217039 101.139548 C 32.946205 101.139548 27.847247 100.426007 22.914955 98.998923 C 18.003496 97.57184 14.055579 95.712465 11.081621 93.420798 L 16.310788 81.816631 C 19.164955 83.910381 22.560788 85.592673 26.498288 86.863506 C 30.435789 88.134339 34.373289 88.769756 38.310789 88.769756 C 42.696206 88.769756 45.935789 88.118714 48.029539 86.816631 C 50.118081 85.514548 51.164956 83.780173 51.164956 81.608297 C 51.164956 80.024964 50.545165 78.717672 49.305581 77.676006 C 48.065998 76.623922 46.477456 75.780172 44.539956 75.144755 C 42.618081 74.509339 40.003497 73.811422 36.701414 73.051005 C 31.61808 71.842672 27.456622 70.634339 24.217038 69.426005 C 20.977455 68.212463 18.196205 66.274963 15.868079 63.608297 C 13.560788 60.946838 12.404538 57.394755 12.404538 52.962463 C 12.404538 49.087462 13.451413 45.577046 15.545163 42.426004 C 17.638913 39.28017 20.789955 36.795795 25.008705 34.962462 C 29.237872 33.118712 34.39933 32.196837 40.493081 32.196837 C 44.758706 32.196837 48.920164 32.707253 52.982665 33.733295 C 57.039957 34.738503 60.597248 36.196837 63.65454 38.103087 L 58.883707 49.801004 C 52.732665 46.311421 46.571206 44.566629 40.399331 44.566629 C 36.092039 44.566629 32.89933 45.264546 30.821205 46.660379 C 28.758705 48.056212 27.727455 49.899963 27.727455 52.191629 C 27.727455 54.472879 28.920163 56.170796 31.310789 57.28538 C 33.696205 58.399963 37.331622 59.493713 42.217039 60.56663 C 47.300373 61.774963 51.461831 62.983297 54.701415 64.19163 C 57.940998 65.399963 60.71704 67.306213 63.024332 69.91038 C 65.352457 72.514547 66.513915 76.035381 66.513915 80.467672 C 66.513915 84.280173 65.440999 87.759339 63.305582 90.910381 C 61.180582 94.056215 57.987873 96.551007 53.722248 98.394757 C 49.477456 100.222882 44.305581 101.139548 38.217039 101.139548 Z M 38.217039 101.139548 " stroke="#d5f1f0" stroke-width="7.143712" stroke-opacity="1" stroke-miterlimit="4"/><g fill="#020bb5" fill-opacity="1"><g transform="translate(168.259097, 472.856276)"><g><path d="M 22.359375 0.859375 C 18.410156 0.859375 14.585938 0.320312 10.890625 -0.75 C 7.203125 -1.820312 4.238281 -3.210938 2 -4.921875 L 5.921875 -13.640625 C 8.066406 -12.066406 10.613281 -10.800781 13.5625 -9.84375 C 16.519531 -8.894531 19.476562 -8.421875 22.4375 -8.421875 C 25.71875 -8.421875 28.144531 -8.910156 29.71875 -9.890625 C 31.289062 -10.867188 32.078125 -12.164062 32.078125 -13.78125 C 32.078125 -14.976562 31.613281 -15.96875 30.6875 -16.75 C 29.757812 -17.539062 28.566406 -18.171875 27.109375 -18.640625 C 25.660156 -19.117188 23.695312 -19.644531 21.21875 -20.21875 C 17.40625 -21.125 14.285156 -22.023438 11.859375 -22.921875 C 9.429688 -23.828125 7.347656 -25.28125 5.609375 -27.28125 C 3.867188 -29.289062 3 -31.960938 3 -35.296875 C 3 -38.191406 3.785156 -40.816406 5.359375 -43.171875 C 6.929688 -45.535156 9.300781 -47.40625 12.46875 -48.78125 C 15.632812 -50.164062 19.503906 -50.859375 24.078125 -50.859375 C 27.265625 -50.859375 30.378906 -50.476562 33.421875 -49.71875 C 36.472656 -48.957031 39.144531 -47.863281 41.4375 -46.4375 L 37.859375 -37.640625 C 33.242188 -40.265625 28.625 -41.578125 24 -41.578125 C 20.757812 -41.578125 18.363281 -41.050781 16.8125 -40 C 15.269531 -38.957031 14.5 -37.578125 14.5 -35.859375 C 14.5 -34.148438 15.390625 -32.878906 17.171875 -32.046875 C 18.960938 -31.210938 21.691406 -30.390625 25.359375 -29.578125 C 29.171875 -28.671875 32.289062 -27.765625 34.71875 -26.859375 C 37.144531 -25.953125 39.226562 -24.519531 40.96875 -22.5625 C 42.707031 -20.613281 43.578125 -17.972656 43.578125 -14.640625 C 43.578125 -11.785156 42.78125 -9.175781 41.1875 -6.8125 C 39.59375 -4.457031 37.195312 -2.585938 34 -1.203125 C 30.8125 0.171875 26.929688 0.859375 22.359375 0.859375 Z M 22.359375 0.859375 "/></g></g></g></svg>